HIERARCHY
ROOT Hips
{
 OFFSET 0.000000 0.000000 0.000000
 CHANNELS 6 Xposition Yposition Zposition Yrotation Xrotation Zrotation
 JOINT Chest
 {
  OFFSET 0.000000 10.383400 0.001500
  CHANNELS 3 Yrotation Xrotation Zrotation
  JOINT Chest2
  {
   OFFSET 0.000000 10.418200 -0.003100
   CHANNELS 3 Yrotation Xrotation Zrotation
   JOINT Chest3
   {
    OFFSET 0.000000 10.375100 0.000000
    CHANNELS 3 Yrotation Xrotation Zrotation
    JOINT Chest4
    {
     OFFSET 0.000000 10.364600 0.000000
     CHANNELS 3 Yrotation Xrotation Zrotation
     JOINT Neck
     {
      OFFSET 0.000000 15.642200 0.000000
      CHANNELS 3 Yrotation Xrotation Zrotation
      JOINT Head
      {
       OFFSET 0.000000 9.697300 -0.006500
       CHANNELS 3 Yrotation Xrotation Zrotation
       End Site
       {
        OFFSET 0.000000 18.492200 -0.003400
       }
      }
     }
     JOINT RightCollar
     {
      OFFSET -3.166800 10.349300 0.000000
      CHANNELS 3 Yrotation Xrotation Zrotation
      JOINT RightShoulder
      {
       OFFSET -14.729700 0.000000 0.000000
       CHANNELS 3 Yrotation Xrotation Zrotation
       JOINT RightElbow
       {
        OFFSET 0.000000 -32.224300 0.000000
        CHANNELS 3 Yrotation Xrotation Zrotation
        JOINT RightWrist
        {
         OFFSET 0.000000 -26.084100 0.000000
         CHANNELS 3 Yrotation Xrotation Zrotation
         End Site
         {
          OFFSET 0.000000 -19.319400 0.000000
         }
        }
       }
      }
     }
     JOINT LeftCollar
     {
      OFFSET 3.166800 10.349300 0.000000
      CHANNELS 3 Yrotation Xrotation Zrotation
      JOINT LeftShoulder
      {
       OFFSET 14.729700 0.000000 0.000000
       CHANNELS 3 Yrotation Xrotation Zrotation
       JOINT LeftElbow
       {
        OFFSET 0.000000 -32.224300 0.000000
        CHANNELS 3 Yrotation Xrotation Zrotation
        JOINT LeftWrist
        {
         OFFSET 0.000000 -26.084100 0.000000
         CHANNELS 3 Yrotation Xrotation Zrotation
         End Site
         {
          OFFSET 0.000000 -19.319400 0.000000
         }
        }
       }
      }
     }
    }
   }
  }
 }
 JOINT RightHip
 {
  OFFSET -8.428900 -0.007500 -0.000800
  CHANNELS 3 Yrotation Xrotation Zrotation
  JOINT RightKnee
  {
   OFFSET 0.000000 -43.834600 0.000700
   CHANNELS 3 Yrotation Xrotation Zrotation
   JOINT RightAnkle
   {
    OFFSET 0.000000 -42.757000 0.001200
    CHANNELS 3 Yrotation Xrotation Zrotation
    JOINT RightToe
    {
     OFFSET 0.000000 -6.946900 15.649300
     CHANNELS 3 Yrotation Xrotation Zrotation
     End Site
     {
      OFFSET 0.000000 -1.580800 6.825800
     }
    }
   }
  }
 }
 JOINT LeftHip
 {
  OFFSET 8.428900 -0.007500 -0.000800
  CHANNELS 3 Yrotation Xrotation Zrotation
  JOINT LeftKnee
  {
   OFFSET 0.000000 -43.834600 0.000700
   CHANNELS 3 Yrotation Xrotation Zrotation
   JOINT LeftAnkle
   {
    OFFSET 0.000000 -42.757000 0.001200
    CHANNELS 3 Yrotation Xrotation Zrotation
    JOINT LeftToe
    {
     OFFSET 0.000000 -6.946900 15.649300
     CHANNELS 3 Yrotation Xrotation Zrotation
     End Site
     {
      OFFSET 0.000000 -1.580800 6.825800
     }
    }
   }
  }
 }
}
MOTION
Frames: 14
Frame Time: 0.008333
0.000000 93.354300 0.000000 0.000000 -5.767883 0.000000 0.000000 11.653835 0.000000 0.000000 -5.885947 0.000000 0.000000 -0.000000 0.000000 0.000000 -0.000000 0.000000 0.000000 12.528835 0.000000 0.000000 0.711642 0.000000 0.000000 -0.000000 0.000000 0.000000 0.000000 -90.000000 0.000000 -2.309062 0.000000 0.000000 2.309062 0.000000 0.000000 -0.000000 0.000000 0.000000 -0.000000 90.000000 0.000000 -2.309062 0.000000 0.000000 2.309062 0.000000 0.000000 8.520418 0.000000 0.000000 1.905762 0.000000 -0.000000 -4.658285 0.000000 0.000000 -0.000000 0.000000 0.000000 8.520418 0.000000 0.000000 1.905762 0.000000 -0.000000 -4.658285 0.000000 0.000000 -0.000000 0.000000
127.498840 154.087123 17.679355 -10.791045 -33.676792 -3.403301 -4.211026 14.730366 0.765496 -0.397428 1.379046 0.175917 -0.665855 2.319022 0.290456 -3.690330 13.177651 1.388548 -6.658502 17.526770 0.369383 -12.288275 -2.896791 3.028868 0.611168 -7.915482 -6.777765 8.573560 -12.294062 -0.668839 21.335292 -26.740031 -2.385344 2.864340 -6.483801 -18.683181 -3.849686 -6.168880 -2.323744 -0.628118 -4.293843 3.142114 -20.842616 -42.217323 4.046567 -20.581194 2.348341 11.813802 -4.495783 -33.891340 -7.064814 -28.153061 76.038424 -25.594300 0.503619 -4.515858 5.494848 0.156314 -0.699465 0.052931 -6.849192 -28.347022 -5.443044 -3.369536 73.735617 -0.773268 -12.790353 -8.946154 -3.935165 0.062526 0.169702 0.006170
127.390447 145.557658 17.656623 -10.829085 -33.616403 -3.643962 -4.138463 14.711719 1.073357 -0.399609 1.382350 0.180043 -0.694350 2.349786 0.337030 -3.697284 13.159638 1.384885 -6.598680 17.481285 0.334331 -12.189205 -2.976070 2.964137 0.554995 -7.769286 -6.949607 8.213270 -11.892690 -0.750307 21.294014 -28.247361 -2.495189 2.869097 -6.495992 -18.696715 -3.680073 -6.102925 -2.329054 -0.425762 -4.158369 3.183123 -20.616963 -43.040862 3.887107 -20.481396 2.360425 11.988618 -4.648900 -33.967922 -6.771858 -28.277250 76.096798 -25.684911 0.575211 -4.771860 5.494714 0.070678 -0.419816 0.031393 -7.006646 -28.261898 -5.089817 -3.492263 73.601024 -0.862247 -12.723876 -8.893611 -3.972880 0.042123 0.111327 0.018726
127.305567 138.535720 17.643572 -10.811417 -33.589931 -3.839856 -4.162675 14.748690 1.336454 -0.373207 1.364527 0.143413 -0.712492 2.359143 0.356587 -3.690281 13.137182 1.361384 -6.510930 17.486530 0.419195 -12.111634 -3.077982 2.844979 0.440907 -7.613726 -7.076194 7.859686 -11.438117 -0.858621 21.272067 -29.907258 -2.643360 2.883606 -6.501295 -18.698121 -3.527970 -5.999559 -2.282672 -0.195069 -3.947179 3.219341 -20.343289 -44.050056 3.755527 -20.347576 2.247451 12.371481 -4.804157 -34.003374 -6.588486 -28.386733 76.157548 -25.728047 0.610998 -4.990452 5.431870 0.062397 -0.230800 0.027642 -7.153780 -28.170056 -4.843118 -3.591224 73.488157 -0.928974 -12.668035 -8.839695 -3.997083 0.026336 0.069982 0.011702
127.249797 133.465372 17.638681 -10.793190 -33.585610 -3.949922 -4.185478 14.775693 1.473671 -0.373691 1.365693 0.144684 -0.721792 2.365475 0.365885 -3.727561 13.152857 1.415196 -6.444985 17.444765 0.367665 -11.990619 -3.141262 2.778316 0.348223 -7.499665 -7.275226 7.503768 -10.942767 -0.999642 21.245480 -31.715069 -2.802033 2.901370 -6.537164 -18.692741 -3.324571 -5.916746 -2.302896 0.086645 -3.657057 3.244904 -20.039405 -45.266216 3.637558 -20.206378 2.007563 12.956541 -4.903067 -34.015394 -6.496566 -28.378856 76.203485 -25.692917 0.632234 -5.117073 5.404311 0.043829 -0.118766 0.019427 -7.236258 -28.088614 -4.708584 -3.673284 73.400285 -0.982767 -12.641425 -8.797850 -4.019930 0.015933 0.039609 0.007077
127.217833 130.262960 17.637917 -10.772461 -33.585440 -4.004938 -4.225307 14.804490 1.548079 -0.377082 1.367328 0.155817 -0.708687 2.354994 0.342561 -3.782572 13.186891 1.486663 -6.373655 17.409510 0.322994 -11.865604 -3.190320 2.723133 0.229567 -7.403306 -7.464137 7.130404 -10.415464 -1.173676 21.199650 -33.667189 -2.939843 2.927478 -6.610074 -18.709044 -3.114977 -5.827565 -2.310078 0.432715 -3.291381 3.262230 -19.748966 -46.701413 3.535344 -20.087776 1.700111 13.699944 -4.998619 -34.025839 -6.455855 -28.276512 76.242226 -25.602195 0.650415 -5.171029 5.398187 0.009219 -0.044081 0.004090 -7.312362 -28.043177 -4.641053 -3.658597 73.352146 -0.971113 -12.628046 -8.767469 -4.032668 0.006722 0.016548 0.002985
127.200414 128.500040 17.636572 -10.770525 -33.572085 -4.030857 -4.244923 14.812506 1.592753 -0.392755 1.375075 0.174780 -0.693281 2.343767 0.323811 -3.816340 13.208830 1.520207 -6.308020 17.395551 0.313663 -11.742492 -3.222311 2.685809 0.059252 -7.308665 -7.611367 6.718862 -9.864430 -1.380235 21.149145 -35.757186 -3.040159 2.967175 -6.723922 -18.787312 -2.922065 -5.722302 -2.269901 0.844351 -2.860457 3.279322 -19.518418 -48.344909 3.458675 -19.996281 1.392204 14.545639 -5.055630 -34.053847 -6.421583 -28.256685 76.270108 -25.590778 0.649199 -5.185359 5.386919 0.001747 -0.013294 0.000775 -7.389862 -28.053680 -4.605668 -3.600024 73.352230 -0.919254 -12.625075 -8.742533 -4.035911 -0.001521 -0.000092 -0.000675
127.191938 127.659423 17.635642 -10.773444 -33.556977 -4.043474 -4.246892 14.804988 1.613848 -0.417631 1.397034 0.199061 -0.719492 2.374508 0.349023 -3.807454 13.180258 1.501706 -6.245208 17.389533 0.315572 -11.627718 -3.238224 2.669186 -0.150359 -7.219448 -7.742005 6.246100 -9.297233 -1.616310 21.138133 -37.974372 -3.113688 3.014682 -6.881929 -18.944479 -2.734645 -5.619675 -2.200802 1.318992 -2.378425 3.306766 -19.372949 -50.170943 3.404835 -19.933528 1.130868 15.432813 -5.102271 -34.082589 -6.400455 -28.278384 76.289918 -25.606105 0.656736 -5.176097 5.358605 0.004739 -0.008320 0.002104 -7.406135 -28.073529 -4.601791 -3.604473 73.376563 -0.893689 -12.605766 -8.755113 -4.049434 0.001387 0.000294 0.000616
127.188144 127.313370 17.633123 -10.767954 -33.530793 -4.057742 -4.268414 14.801814 1.641315 -0.420047 1.399272 0.200987 -0.714064 2.375008 0.341129 -3.818450 13.184050 1.510874 -6.186880 17.389832 0.326667 -11.523803 -3.241171 2.670374 -0.399121 -7.133541 -7.861601 5.695713 -8.717572 -1.871879 21.212637 -40.303465 -3.191785 3.070474 -7.073289 -19.168594 -2.549639 -5.528984 -2.108307 1.854775 -1.863303 3.359329 -19.329469 -52.146621 3.374842 -19.899559 0.941865 16.297624 -5.125960 -34.114101 -6.386791 -28.342598 76.293901 -25.643909 0.660006 -5.158204 5.333008 0.010337 -0.001251 0.004589 -7.461098 -28.122398 -4.586003 -3.527578 73.411870 -0.825658 -12.600916 -8.754356 -4.054392 0.001356 -0.000111 0.000602
127.186535 127.192870 17.632971 -10.769000 -33.522896 -4.063581 -4.282305 14.833507 1.655568 -0.412435 1.383493 0.198467 -0.717415 2.373684 0.338841 -3.816853 13.175205 1.512898 -6.140889 17.407860 0.346735 -11.426330 -3.234738 2.682465 -0.685205 -7.042577 -7.974815 5.054681 -8.127031 -2.135797 21.398633 -42.723327 -3.301054 3.138543 -7.276541 -19.435678 -2.362948 -5.439559 -1.998186 2.447559 -1.338657 3.450300 -19.401051 -54.237895 3.374331 -19.875644 0.823746 17.092245 -5.139787 -34.140127 -6.403642 -28.483817 76.308727 -25.725707 0.695846 -5.131465 5.276643 0.021034 -0.003544 0.009337 -7.503819 -28.154087 -4.579502 -3.450445 73.446311 -0.755598 -12.600634 -8.753500 -4.066375 0.002089 -0.000805 0.000927
127.187730 127.156358 17.631829 -10.772240 -33.510377 -4.057601 -4.287360 14.836915 1.650836 -0.423906 1.403335 0.202932 -0.709364 2.357829 0.335052 -3.815931 13.167392 1.518401 -6.099035 17.429646 0.361994 -11.334249 -3.219312 2.700960 -0.986340 -6.962979 -8.100711 4.322718 -7.529805 -2.399485 21.701815 -45.210183 -3.454575 3.219058 -7.470763 -19.725187 -2.157223 -5.355571 -1.884078 3.096683 -0.829459 3.588007 -19.561593 -56.413546 3.372442 -19.848152 0.750409 17.798208 -5.129708 -34.175135 -6.435697 -28.541884 76.331708 -25.744036 0.714720 -5.096411 5.254529 0.017262 -0.007785 0.007662 -7.531415 -28.191593 -4.584883 -3.380996 73.474499 -0.694349 -12.604656 -8.743421 -4.073516 0.000756 -0.000139 0.000335
127.189309 127.146580 17.630120 -10.769792 -33.499561 -4.054359 -4.292332 14.840182 1.641682 -0.424698 1.397647 0.206862 -0.710662 2.363325 0.334015 -3.836103 13.180895 1.519492 -6.048661 17.429856 0.373221 -11.244535 -3.184129 2.720219 -1.282458 -6.908080 -8.240544 3.522873 -6.931969 -2.652838 22.119796 -47.742828 -3.674044 3.310313 -7.647098 -20.023347 -1.917101 -5.284941 -1.761071 3.799918 -0.349659 3.775879 -19.750378 -58.654182 3.311207 -19.820354 0.695198 18.424404 -5.136938 -34.203833 -6.457075 -28.591390 76.346362 -25.767845 0.739172 -5.076148 5.231005 0.015021 -0.011826 0.006667 -7.558232 -28.225468 -4.591562 -3.319489 73.497905 -0.638768 -12.606803 -8.727096 -4.082546 -0.000267 0.002739 -0.000118
127.191223 127.143739 17.627707 -10.765597 -33.490310 -4.051049 -4.298057 14.843075 1.627361 -0.423728 1.392741 0.213889 -0.710986 2.360278 0.335188 -3.848187 13.226423 1.495740 -6.017340 17.392147 0.405233 -11.149517 -3.119271 2.734283 -1.599093 -6.883232 -8.374547 2.687707 -6.333175 -2.889504 22.646994 -50.307504 -3.987955 3.412113 -7.811100 -20.325731 -1.670436 -5.233270 -1.605508 4.538805 0.099827 4.011898 -19.919368 -60.958470 3.166193 -19.799408 0.638862 18.989745 -5.190935 -34.243057 -6.456288 -28.605285 76.367848 -25.796611 0.766076 -5.049375 5.209312 0.011515 -0.021117 0.005110 -7.609653 -28.260662 -4.607778 -3.200087 73.520626 -0.528220 -12.583379 -8.706636 -4.110770 -0.002300 0.003984 -0.001021
127.190930 127.143858 17.625944 -10.763723 -33.495609 -4.057471 -4.299680 14.857275 1.624147 -0.421935 1.399337 0.210602 -0.711318 2.363632 0.334668 -3.850505 13.240331 1.491466 -5.971796 17.406052 0.428430 -11.085030 -3.075936 2.757779 -1.921191 -6.845949 -8.536277 1.846490 -5.729928 -3.113480 23.270196 -52.894949 -4.413984 3.528144 -7.971665 -20.638924 -1.412345 -5.160574 -1.453066 5.294650 0.529564 4.286939 -20.066998 -63.333034 2.964846 -19.785340 0.561023 19.519714 -5.234279 -34.258719 -6.443233 -28.632664 76.376181 -25.830865 0.782794 -5.011665 5.200172 0.008836 -0.023246 0.003921 -7.656084 -28.276258 -4.612930 -3.109571 73.536103 -0.441002 -12.555612 -8.681303 -4.142249 -0.002135 0.005498 -0.000948
